<?xml version="1.0" standalone="no"?><!DOCTYPE svg PUBLIC "-//W3C//DTD SVG 1.1//EN" "http://www.w3.org/Graphics/SVG/1.1/DTD/svg11.dtd"><svg t="1497517211052" class="icon" style="" viewBox="0 0 1024 1024" version="1.1" xmlns="http://www.w3.org/2000/svg" p-id="5181" xmlns:xlink="http://www.w3.org/1999/xlink" width="200" height="200"><defs><style type="text/css"></style></defs><path d="M768 300.816c0-141.152-114.848-256-256-256s-256 114.848-256 256 114.848 256 256 256S768 441.968 768 300.816zM512 524.816c-123.52 0-224-100.48-224-224s100.48-224 224-224 224 100.48 224 224S635.52 524.816 512 524.816z" p-id="5182" fill="#1296db"></path><path d="M354.976 562.24c-2.336 1.136-232.96 117.52-232.96 398.352 0 8.848 7.168 16 16 16s16-7.152 16-16c0-260.448 206.288-365.312 215.056-369.648 7.92-3.904 11.184-13.504 7.28-21.424C372.448 561.616 362.88 558.352 354.976 562.24z" p-id="5183" fill="#1296db"></path><path d="M669.024 564.832c-7.952-3.888-17.504-0.624-21.392 7.296-3.904 7.92-0.64 17.52 7.28 21.424 8.784 4.336 215.056 109.184 215.056 369.648 0 8.848 7.152 16 16 16s16-7.152 16-16C901.984 682.336 671.36 565.968 669.024 564.832z" p-id="5184" fill="#1296db"></path></svg>